<?xml version="1.0" encoding="UTF-8"?>
<svg id="Capa_2" data-name="Capa 2" xmlns="http://www.w3.org/2000/svg" xmlns:xlink="http://www.w3.org/1999/xlink" viewBox="0 0 1021 931" width="31.88" height="32">
  <defs>
    <style>
      .cls-1 {
        filter: url(#drop-shadow-10);
      }

      .cls-2 {
        filter: url(#drop-shadow-14);
      }

      .cls-3 {
        filter: url(#drop-shadow-7);
      }

      .cls-4 {
        fill: #fff;
      }

      .cls-5 {
        fill: #cccaca;
      }

      .cls-6 {
        opacity: .6;
      }

      .cls-7 {
        fill: #fdffff;
      }

      .cls-8 {
        filter: url(#drop-shadow-4);
      }

      .cls-9 {
        fill: #37a9c7;
      }

      .cls-10 {
        fill: #070707;
      }

      .cls-10, .cls-11 {
        opacity: .07;
      }

      .cls-12 {
        filter: url(#drop-shadow-8);
      }

      .cls-13 {
        fill: #32d6fc;
      }

      .cls-14 {
        filter: url(#drop-shadow-15);
      }

      .cls-15 {
        filter: url(#drop-shadow-17);
      }

      .cls-16 {
        filter: url(#drop-shadow-3);
      }

      .cls-17 {
        filter: url(#drop-shadow-11);
      }

      .cls-18 {
        filter: url(#drop-shadow-1);
      }

      .cls-19 {
        filter: url(#drop-shadow-6);
      }

      .cls-20 {
        filter: url(#drop-shadow-5);
      }

      .cls-21 {
        filter: url(#drop-shadow-2);
      }

      .cls-22 {
        filter: url(#drop-shadow-16);
      }

      .cls-23 {
        fill: #515151;
      }

      .cls-24 {
        fill: #383838;
      }

      .cls-25 {
        filter: url(#drop-shadow-9);
      }

      .cls-26 {
        filter: url(#drop-shadow-13);
      }

      .cls-27 {
        fill: #cecece;
      }

      .cls-11 {
        fill: #020202;
      }

      .cls-28 {
        filter: url(#drop-shadow-12);
      }

      .cls-29 {
        fill: #42fcf7;
      }
    </style>
    <filter id="drop-shadow-1" filterUnits="userSpaceOnUse">
      <feOffset dx="20" dy="20"/>
      <feGaussianBlur result="blur" stdDeviation="10"/>
      <feFlood flood-color="#000" flood-opacity=".7"/>
      <feComposite in2="blur" operator="in"/>
      <feComposite in="SourceGraphic"/>
    </filter>
    <filter id="drop-shadow-2" filterUnits="userSpaceOnUse">
      <feOffset dx="20" dy="20"/>
      <feGaussianBlur result="blur-2" stdDeviation="10"/>
      <feFlood flood-color="#000" flood-opacity=".7"/>
      <feComposite in2="blur-2" operator="in"/>
      <feComposite in="SourceGraphic"/>
    </filter>
    <filter id="drop-shadow-3" filterUnits="userSpaceOnUse">
      <feOffset dx="20" dy="20"/>
      <feGaussianBlur result="blur-3" stdDeviation="10"/>
      <feFlood flood-color="#000" flood-opacity=".7"/>
      <feComposite in2="blur-3" operator="in"/>
      <feComposite in="SourceGraphic"/>
    </filter>
    <filter id="drop-shadow-4" filterUnits="userSpaceOnUse">
      <feOffset dx="20" dy="20"/>
      <feGaussianBlur result="blur-4" stdDeviation="10"/>
      <feFlood flood-color="#000" flood-opacity=".7"/>
      <feComposite in2="blur-4" operator="in"/>
      <feComposite in="SourceGraphic"/>
    </filter>
    <filter id="drop-shadow-5" filterUnits="userSpaceOnUse">
      <feOffset dx="20" dy="20"/>
      <feGaussianBlur result="blur-5" stdDeviation="10"/>
      <feFlood flood-color="#000" flood-opacity=".7"/>
      <feComposite in2="blur-5" operator="in"/>
      <feComposite in="SourceGraphic"/>
    </filter>
    <filter id="drop-shadow-6" filterUnits="userSpaceOnUse">
      <feOffset dx="20" dy="20"/>
      <feGaussianBlur result="blur-6" stdDeviation="10"/>
      <feFlood flood-color="#000" flood-opacity=".7"/>
      <feComposite in2="blur-6" operator="in"/>
      <feComposite in="SourceGraphic"/>
    </filter>
    <filter id="drop-shadow-7" filterUnits="userSpaceOnUse">
      <feOffset dx="20" dy="20"/>
      <feGaussianBlur result="blur-7" stdDeviation="10"/>
      <feFlood flood-color="#000" flood-opacity=".7"/>
      <feComposite in2="blur-7" operator="in"/>
      <feComposite in="SourceGraphic"/>
    </filter>
    <filter id="drop-shadow-8" filterUnits="userSpaceOnUse">
      <feOffset dx="20" dy="20"/>
      <feGaussianBlur result="blur-8" stdDeviation="10"/>
      <feFlood flood-color="#000" flood-opacity=".7"/>
      <feComposite in2="blur-8" operator="in"/>
      <feComposite in="SourceGraphic"/>
    </filter>
    <filter id="drop-shadow-9" filterUnits="userSpaceOnUse">
      <feOffset dx="20" dy="20"/>
      <feGaussianBlur result="blur-9" stdDeviation="10"/>
      <feFlood flood-color="#000" flood-opacity=".7"/>
      <feComposite in2="blur-9" operator="in"/>
      <feComposite in="SourceGraphic"/>
    </filter>
    <filter id="drop-shadow-10" filterUnits="userSpaceOnUse">
      <feOffset dx="20" dy="20"/>
      <feGaussianBlur result="blur-10" stdDeviation="10"/>
      <feFlood flood-color="#000" flood-opacity=".7"/>
      <feComposite in2="blur-10" operator="in"/>
      <feComposite in="SourceGraphic"/>
    </filter>
    <filter id="drop-shadow-11" filterUnits="userSpaceOnUse">
      <feOffset dx="20" dy="20"/>
      <feGaussianBlur result="blur-11" stdDeviation="10"/>
      <feFlood flood-color="#000" flood-opacity=".7"/>
      <feComposite in2="blur-11" operator="in"/>
      <feComposite in="SourceGraphic"/>
    </filter>
    <filter id="drop-shadow-12" filterUnits="userSpaceOnUse">
      <feOffset dx="20" dy="20"/>
      <feGaussianBlur result="blur-12" stdDeviation="10"/>
      <feFlood flood-color="#000" flood-opacity=".7"/>
      <feComposite in2="blur-12" operator="in"/>
      <feComposite in="SourceGraphic"/>
    </filter>
    <filter id="drop-shadow-13" filterUnits="userSpaceOnUse">
      <feOffset dx="20" dy="20"/>
      <feGaussianBlur result="blur-13" stdDeviation="10"/>
      <feFlood flood-color="#000" flood-opacity=".7"/>
      <feComposite in2="blur-13" operator="in"/>
      <feComposite in="SourceGraphic"/>
    </filter>
    <filter id="drop-shadow-14" filterUnits="userSpaceOnUse">
      <feOffset dx="20" dy="20"/>
      <feGaussianBlur result="blur-14" stdDeviation="10"/>
      <feFlood flood-color="#000" flood-opacity=".7"/>
      <feComposite in2="blur-14" operator="in"/>
      <feComposite in="SourceGraphic"/>
    </filter>
    <filter id="drop-shadow-15" filterUnits="userSpaceOnUse">
      <feOffset dx="20" dy="20"/>
      <feGaussianBlur result="blur-15" stdDeviation="10"/>
      <feFlood flood-color="#000" flood-opacity=".7"/>
      <feComposite in2="blur-15" operator="in"/>
      <feComposite in="SourceGraphic"/>
    </filter>
    <filter id="drop-shadow-16" filterUnits="userSpaceOnUse">
      <feOffset dx="20" dy="20"/>
      <feGaussianBlur result="blur-16" stdDeviation="10"/>
      <feFlood flood-color="#000" flood-opacity=".7"/>
      <feComposite in2="blur-16" operator="in"/>
      <feComposite in="SourceGraphic"/>
    </filter>
    <filter id="drop-shadow-17" filterUnits="userSpaceOnUse">
      <feOffset dx="20" dy="20"/>
      <feGaussianBlur result="blur-17" stdDeviation="10"/>
      <feFlood flood-color="#000" flood-opacity=".7"/>
      <feComposite in2="blur-17" operator="in"/>
      <feComposite in="SourceGraphic"/>
    </filter>
  </defs>
  <g id="Capa_6" data-name="Capa 6">
    <g>
      <g>
        <path class="cls-18" d="m626.24,795.21c-.19,2.63-.92,7.12-4.07,11.15-5.61,7.19-14.94,7.82-19.31,8.11-9.17.62-11.82-2.29-24.4-5.07-7.46-1.65-19.23-4.25-32.53-2.03-7.32,1.22-13.79,4.21-26.43,10.14-16.09,7.55-17.8,10.31-25.41,13.18-8.63,3.26-21.99,5.59-41.68,0-4.89-1.21-12.89-3.85-20.33-10.14-11.37-9.62-15.03-22.4-16.26-26.36-2.21-7.12-35.85-67.01-103.13-186.79-9.4-16.73-24.12-42.45-43.25-73.81,0,0-69.58-111.43-132.14-162.24-28.04-22.77-57.94-38.53-57.94-38.53-14.13-7.45-26.5-12.7-35.58-16.22,10.85-4.59,26.53-11.04,45.74-18.25,16.01-6.01,24.92-9.35,37.61-13.18,14.89-4.49,32.1-9.61,53.87-12.17,18.47-2.17,35.49-1.94,44.72-1.01,47.87,4.82,82.96,48.32,90.47,56.78,30.58,34.5,121.52,72.36,386.26,87.21-22.27,12.1-81.83,48.39-112.83,121.68-54.58,129.05,31.25,250.28,36.59,257.56Z"/>
        <path class="cls-21" d="m596.76,774.93c.48,7.23.71,10.85-1.02,13.18-4.63,6.24-15.09,2.54-35.58,3.04-14.14.34-24.74,2.48-32.53,4.06-24.82,5.01-26.46,11.01-36.59,11.15-10.24.15-21.93-6.43-62.01-64.9-14.55-21.23-17.95-28.9-45.74-74.02-19.25-31.25-23.35-36.88-30.49-48.67-15.83-26.13-53.85-90.17-67.09-175.42-3.66-23.6-6.86-58.03-3.05-100.39,19.14-3.82,39.5-6.67,60.99-8.11,137.48-9.24,249.85,43.75,316.12,84.16-6.37,4.79-14.34,11.24-22.98,19.47,0,0-17.03,16.22-30.89,35.28-44.61,61.34-51.29,227.33-27.44,255.53.82.97,5.73,6.55,10.16,15.21,1.44,2.81,7.06,14.22,8.13,30.42Z"/>
        <path class="cls-16" d="m499.65,679.19c-3.75-26.86-1.46-47.31,1.56-61.43,2.07-9.68,5.02-18.87,7.12-35.49,1.55-12.26,2.93-23.19,1.74-34.79-2.16-21.04-12.24-29.35-26.09-58.61-9.38-19.82-16.15-36.37-20.42-47.3,6.82,5.47,29.51,22.27,63.69,23.59,24.12.93,42.52-6.28,51.22-10.35,2.61,20.5,3.4,45.74-1.24,74.08-12.09,73.98-53.98,125.5-77.58,150.31Z"/>
        <path class="cls-8" d="m503.25,671.5c-.81-6.41-1.62-15.92-1.02-27.38,1-18.97,5.08-28.57,8.13-43.6,1.66-8.19,6.93-32.23,2.03-57.8-3.41-17.82-9.03-24.44-23.38-57.8-8.41-19.55-14.47-35.86-18.3-46.64,6.1,5.4,26.39,21.98,56.92,23.32,21.55.95,37.98-6.14,45.74-10.14,2.38,20.15,3.13,45.05-1.02,73.01-10.77,72.59-48.21,122.95-69.12,147.03Z"/>
        <path class="cls-20" d="m739.07,600.52c-2.63-22.76-.55-39.4,2.03-50.7,1.11-4.85,3-11.75,4.07-22.13.16-1.59,1.16-16,0-28.94-1.87-20.93-12.03-27.8-22.32-51.2-4.6-10.48-9.96-25.94-12.27-46.6,5.65,5.01,24.48,20.39,52.81,21.64,19.99.88,35.23-5.7,42.43-9.41,3.36,17.03,5.71,40.54,1.35,67.69-10.49,65.22-52.41,105.86-68.1,119.65Z"/>
        <path class="cls-19" d="m744.15,590.38c-1.3-10.87-.73-19.52,0-25.35,1.37-10.89,3.55-13.53,5.08-26.36.7-5.85.74-11.42,1.02-22.31.34-13.6.52-20.58,0-26.36-1.7-19.07-10.96-25.32-20.33-46.64-4.19-9.55-9.07-23.63-11.18-42.45,5.15,4.56,22.3,18.57,48.1,19.71,18.21.8,32.09-5.19,38.66-8.57,2.22,16.5,3.11,37.69-.86,61.7-9.91,59.88-43.88,99.64-60.49,116.64Z"/>
        <path class="cls-3" d="m637.42,428.14c2.62,15.69-55.46,49.14-114.35,48.67-111.96-.89-199.48-124.14-188.56-138.92,8.03-10.86,64.59,43.02,188.56,67.94,69.21,13.91,112.18,9.3,114.35,22.31Z"/>
        <path class="cls-12" d="m711.63,403.8c-1.34,4.23,5.8,11.34,12.2,14.2,5.16,2.31,8.41,1.22,15.25,2.03,6.08.72,11.59,3.2,22.36,8.11,21.16,9.66,23.82,13.97,31.51,13.18,5.26-.54,10.13-3.17,16.26-9.13,27.76-26.91,38.46-79.82,34.56-81.12-1.98-.66-4.06,13.16-18.3,26.36-5.04,4.67-15.36,12.76-39.18,18.55-42.37,10.29-72.16-.13-74.67,7.82Z"/>
        <path class="cls-25" d="m786.85,689.76c27.81,3.52,52.96,10.83,74.2,24.34,7.42,4.72,11.69,8.94,15.25,13.18,11.87,14.17,14.21,29.89,15.25,37.52,3.93,28.95-8.18,51.57-12.2,58.81-11.55,20.84-27.23,31.82-35.58,37.52-22.03,15.04-45.59,20.66-46.76,18.25-.87-1.79,11.23-5.53,19.31-19.27,4.81-8.17,6.39-16.81,8.13-26.36,1.66-9.08,1.96-16.14,2.03-18.25.27-7.93.77-29.26-10.16-52.73-2.8-6.01-8-17.19-18.3-27.38-19.91-19.7-45.89-22.83-59.97-24.34-35.32-3.77-65.22,6.43-108.76,21.29-4.39,1.5-20.81,6.99-43.66,13.33-3.32.92-6.83,1.83-11.23,2.89-58.69,14.23-80.06,9.61-89.48,5.52-1.33-.58-2.23-1.06-3.02-1.47-46.67-23.91-60.65-91.79-65.05-114.58-9.84-50.91-5.09-96.06-1.02-96.33,4.27-.29,7.16,48.79,33.54,112.56,6.18,14.93,15.86,36.28,37.61,53.74,14.25,11.44,27.69,16.4,30.29,17.33,20.13,7.22,38.84,4.96,100.84-12.26,73.21-20.33,93.05-24.11,119.94-25.35,6.85-.32,25.24-.95,48.79,2.03Z"/>
        <path class="cls-1" d="m969.81,808.4c-1.57.74-19.38-32.09-37.61-44.62-7.01-4.81-16.86-8.54-21.47-9.77-4.16-1.1-8.01-1.39-8.01-1.39-2.47-.18-4.57-.11-6.1,0-2.1-7.24-5.76-16.23-12.56-24.87-14.34-18.23-32.99-22.7-32.4-24.24.89-2.32,46.07.79,80.67,32.99,32.68,30.41,39.09,71.13,37.48,71.89Z"/>
        <path class="cls-17" d="m786.96,689.96c27.81,3.52,52.96,10.83,74.2,24.34,7.42,4.72,11.69,8.94,15.25,13.18,11.87,14.17,14.21,29.89,15.25,37.52,3.93,28.95-8.18,51.57-12.2,58.81-11.55,20.84-27.23,31.82-35.58,37.52-22.03,15.04-45.59,20.66-46.76,18.25-.87-1.79,11.23-5.53,19.31-19.27,4.81-8.17,6.39-16.81,8.13-26.36,1.66-9.08,1.96-16.14,2.03-18.25.27-7.93.77-29.26-10.16-52.73-2.8-6.01-8-17.19-18.3-27.38-19.91-19.7-45.89-22.83-59.97-24.34-35.32-3.77-65.22,6.43-108.76,21.29-4.39,1.5-20.81,6.99-43.66,13.33-3.32.92-6.83,1.83-11.23,2.89-58.69,14.23-80.06,9.61-89.48,5.52-1.33-.58-2.23-1.06-3.02-1.47-46.67-23.91-60.65-91.79-65.05-114.58-9.84-50.91-5.09-96.06-1.02-96.33,4.27-.29,7.16,48.79,33.54,112.56,6.18,14.93,15.86,36.28,37.61,53.74,14.25,11.44,27.69,16.4,30.29,17.33,20.13,7.22,38.84,4.96,100.84-12.26,73.21-20.33,93.05-24.11,119.94-25.35,6.85-.32,25.24-.95,48.79,2.03Z"/>
        <path class="cls-28" d="m861.05,194.92c18.97,20.99,56.56,68.55,48.79,77.07-3.05,3.35-11.26-5.15-22.36-3.04-18.69,3.55-25.49,33.04-46.76,92.28-20.81,57.99-27.89,67.61-38.63,70.98-15.62,4.9-24.16-8.09-56.92-14.2-26.36-4.91-47.31-1.43-62.01,1.01-52.58,8.74-62.36,33.95-102.66,44.62-40.83,10.8-76.89-2.88-106.73-14.2-55.48-21.05-95.19-59.78-154.5-117.63-.45-.44-3.96-3.78-8.72-8.23-23.09-21.59-34.63-32.39-41.09-36.39,0,0-21.39-13.25-52.86-17.24-8.37-1.06-16.26-1.01-16.26-1.01-4.88.02-17.82.33-49.81,9.13-9.18,2.52-7.14,2.23-27.44,8.11-22.55,6.53-19.88,5.39-28.46,8.11-21.39,6.78-37.09,13.58-41.68,16.22-1.97,1.14-4.11,1.95-6.1,3.04-.84.46-2.73,1.52-5.42,1.94,0,0-.33.06-.68.09-4.93.48-5.97-1.63-14.23-3.04-7.98-1.37-10.09.07-12.2-1.01-8.17-4.22-.91-38.41,7.12-58.81,23.4-59.46,89.61-93.97,144.34-121.68,86.27-43.69,160.39-58.94,196.18-64.9,58.43-9.72,105.28-9.71,128.08-9.13,35.95.92,252.21,6.44,371.01,137.91Z"/>
        <path class="cls-26" d="m375.17,54.98c-4.14.05-10.14-.08-17.28-1.01-9.29-1.22-16.1-3.21-22.36-5.07-21.94-6.52-27.5-8.41-33.54-10.14-6.08-1.75-23.53-6.47-45.74-8.11-23.07-1.71-42.22.58-45.74,1.01-14.83,1.84-24.89,4.61-25.41,3.04-.8-2.39,21.4-11.76,22.36-12.17,35.6-15.04,192.46-34.09,311.04,66.92,57.5,48.98,98.56,120.62,114.86,149.06,16.3,28.44,20.29,40.31,22.36,39.55,6.15-2.26-11.94-112.8-90.47-192.66-1.66-1.68-3.06-3.07-4.07-4.06-7.76-5.77-18.08-14.37-16.26-18.25.77-1.66,3.78-2.52,20.33-1.01,19.03,1.73,30.49,4.06,30.49,4.06,22.88,4.64,40.2,8.77,41.68,9.13,21.54,5.16,32.6,7.82,46.76,12.17,16.17,4.96,26.48,8.96,29.48,10.14,10.51,4.13,17.87,7.02,27.44,12.17,25.48,13.72,34.77,26.32,37.61,30.42,1.36,1.97,2.27,3.47,2.52,3.88,2.12,3.53,12.2,21.07,9.68,49.86-2.4,27.32-14.47,45.74-24.4,67.94-8.71,19.48-18.75,48.57-22.36,88.22-20.44,4.26-45.89,7.83-75.22,8.11-27.91.27-52.32-2.52-72.17-6.08-25.73-23.47-66.82-54.86-124.01-74.02-52.04-17.44-62.16-6.23-118.93-27.38-78.9-29.4-121.61-74.61-132.14-86.19-15.41-16.95-26.31-32.86-33.54-44.62,13.31-6.33,63.05-29.62,99.61-38.53,11.39-2.78,41.97-9.15,46.76-10.14,12.09-2.51,18.14-3.76,21.35-4.06.52-.05,2.95-.27,6.1-1.01,3.53-.84,5.93-1.41,8.13-3.04,1.08-.8,3.8-3.11,5.08-8.11Z"/>
        <g class="cls-2">
          <path d="m322.06,267.09c-17.9-.05-32.49,2.97-42.09,5.58,32.78-1.02,56.06,5.79,69.8,11.17.2.08.4.16.6.24,1.14-4.58,2.94-8.93,5.1-13.2-9.98-2.2-20.79-3.75-33.41-3.78Z"/>
          <path d="m357.99,272.22c-2.23,4.44-4.08,8.96-5.26,13.71,3.26,1.3,6.4,2.69,9.54,4.22.57-5.46,1.63-10.88,3.37-16.08-2.51-.65-5.04-1.28-7.64-1.85Z"/>
          <path d="m474.12,322.86c-7.06-3.97-22.15-12.44-42.69-22.31-20.08-9.65-31.36-15.07-47.77-20.28-.07-.02-.14-.04-.21-.07-1.83,6.69-3.16,13.51-3.76,20.41,8.29,5.35,17.72,12.12,30.4,21.23,17.03,12.23,30.56,22.98,39.64,30.42,14.28,9.51,26.77,13.41,35.58,15.21,14.86,3.04,23.16,1.51,41.68,3.04,10.31.85,25.4,2.84,43.71,8.11-42.69-25.26-75.48-43.93-96.57-55.77Z"/>
        </g>
        <path class="cls-14" d="m836.65,226.35c-2.73,2.27-6,5.4-9.23,9.54-3.21,4.12-5.46,8.09-7.04,11.34,2.83.45,5.75.76,8.62,1.43.37-2.75.99-5.91,2.01-9.31,1.61-5.36,3.72-9.71,5.63-13Z"/>
        <path class="cls-22" d="m819.01,250.36c-2.02,2.96-4.04,5.98-6.07,9.07,4.71.2,9.47.56,13.84,1.6.48-2.92,1.06-6.01,1.74-9.26-3.17-.65-6.39-.96-9.51-1.4Z"/>
        <path class="cls-15" d="m788.88,304.43c-8.2,17.41-14.87,34.1-20.33,49.69,7.73-4.37,15.92-9.4,24.4-15.21,9.47-6.49,17.93-13,25.41-19.27,1.55-4.66,3.59-11.64,5.08-20.28,1.95-11.3,1.97-19.81,2.03-23.32.04-1.99.13-4.15.28-6.51-5.31-1.84-11.03-2.91-16.86-3.37-6.83,11.83-13.57,24.58-20.01,38.27Z"/>
      </g>
      <path class="cls-27" d="m639.04,781.29c-.18,2.59-.9,7.02-4,11-5.52,7.09-14.7,7.71-19,8-9.02.61-11.63-2.26-24-5-7.34-1.63-18.92-4.19-32-2-7.2,1.2-13.56,4.15-26,10-15.83,7.44-17.51,10.17-25,13-8.49,3.21-21.64,5.52-41,0-4.81-1.2-12.69-3.8-20-10-11.19-9.49-14.79-22.09-16-26-2.17-7.02-35.27-66.09-101.46-184.21-9.24-16.5-23.72-41.87-42.54-72.79,0,0-68.45-109.89-130-160-27.58-22.46-57-38-57-38-13.9-7.34-26.07-12.52-35-16,10.67-4.53,26.1-10.89,45-18,15.75-5.92,24.51-9.22,37-13,14.65-4.43,31.58-9.48,53-12,18.17-2.14,34.91-1.92,44-1,47.09,4.76,81.62,47.65,89,56,30.08,34.02,119.55,71.36,380,86-21.91,11.93-80.51,47.73-111,120-53.69,127.26,30.75,246.82,36,254Z"/>
      <path class="cls-23" d="m610.04,761.29c.47,7.13.7,10.7-1,13-4.55,6.15-14.85,2.51-35,3-13.91.34-24.34,2.45-32,4-24.42,4.94-26.03,10.85-36,11-10.07.15-21.57-6.34-61-64-14.32-20.94-17.66-28.51-45-73-18.94-30.82-22.97-36.37-30-48-15.57-25.77-52.97-88.92-66-173-3.6-23.27-6.75-57.23-3-99,18.83-3.77,38.86-6.58,60-8,135.25-9.12,245.8,43.15,311,83-6.26,4.72-14.11,11.09-22.61,19.2,0,0-16.75,16-30.39,34.8-43.89,60.5-50.45,224.19-27,252,.81.96,5.64,6.46,10,15,1.42,2.77,6.95,14.02,8,30Z"/>
      <path class="cls-6" d="m608.92,761.3c.42,7.09.63,10.63-.9,12.91-4.09,6.11-13.35,2.49-31.46,2.98-12.51.34-21.87,2.43-28.76,3.97-21.95,4.91-23.4,10.78-32.36,10.93-9.05.15-19.39-6.3-54.83-63.58-12.87-20.8-15.88-28.32-40.45-72.52-17.02-30.62-20.65-36.13-26.97-47.69-14-25.6-47.62-88.34-59.33-171.87-3.24-23.12-6.07-56.85-2.7-98.35,16.93-3.74,34.93-6.53,53.93-7.95,121.57-9.06,220.94,42.86,279.55,82.46-5.63,4.69-12.68,11.01-20.32,19.08,0,0-15.06,15.89-27.32,34.57-39.45,60.1-45.35,222.72-24.27,250.35.73.95,5.07,6.41,8.99,14.9,1.27,2.75,6.25,13.93,7.19,29.8Z"/>
      <path class="cls-9" d="m514.5,666.87c-3.69-26.49-1.44-46.65,1.54-60.58,2.04-9.55,4.93-18.61,7-35,1.52-12.09,2.88-22.87,1.71-34.31-2.12-20.75-12.04-28.94-25.67-57.8-9.23-19.55-15.89-35.86-20.09-46.65,6.71,5.39,29.03,21.96,62.66,23.26,23.73.92,41.83-6.2,50.39-10.21,2.57,20.21,3.34,45.11-1.22,73.06-11.9,72.96-53.11,123.76-76.32,148.23Z"/>
      <path class="cls-4" d="m518.04,659.29c-.8-6.32-1.59-15.7-1-27,.98-18.71,5-28.18,8-43,1.63-8.08,6.82-31.78,2-57-3.36-17.58-8.89-24.11-23-57-8.27-19.28-14.24-35.37-18-46,6,5.32,25.96,21.68,56,23,21.2.93,37.36-6.06,45-10,2.34,19.87,3.08,44.42-1,72-10.6,71.59-47.43,121.25-68,145Z"/>
      <path class="cls-9" d="m750.04,589.29c-2.59-22.45-.54-38.86,2-50,1.09-4.78,2.95-11.59,4-21.83.16-1.57,1.14-15.78,0-28.54-1.84-20.64-11.84-27.41-21.95-50.5-4.53-10.34-9.8-25.58-12.07-45.95,5.56,4.94,24.08,20.11,51.95,21.34,19.66.87,34.66-5.62,41.75-9.28,3.31,16.79,5.62,39.98,1.33,66.76-10.32,64.32-51.56,104.4-67,118Z"/>
      <path class="cls-7" d="m755.04,579.29c-1.28-10.72-.72-19.25,0-25,1.35-10.74,3.49-13.34,5-26,.69-5.77.73-11.26,1-22,.34-13.41.51-20.3,0-26-1.68-18.81-10.79-24.97-20-46-4.13-9.42-8.93-23.3-11-41.86,5.07,4.5,21.94,18.32,47.32,19.44,17.91.79,31.57-5.12,38.03-8.45,2.18,16.28,3.06,37.17-.85,60.85-9.75,59.05-43.17,98.26-59.51,115.03Z"/>
      <path class="cls-5" d="m650.04,419.29c2.58,15.48-54.56,48.46-112.5,48-110.15-.88-196.25-122.43-185.5-137,7.9-10.71,63.54,42.42,185.5,67,68.09,13.72,110.36,9.17,112.5,22Z"/>
      <path class="cls-5" d="m723.04,395.29c-1.31,4.17,5.71,11.18,12,14,5.08,2.28,8.27,1.2,15,2,5.98.71,11.4,3.15,22,8,20.82,9.52,23.43,13.77,31,13,5.17-.53,9.96-3.13,16-9,27.31-26.54,37.84-78.72,34-80-1.94-.65-4,12.98-18,26-4.96,4.61-15.11,12.58-38.54,18.29-41.68,10.15-70.99-.13-73.46,7.71Z"/>
      <path class="cls-29" d="m797.04,677.29c27.36,3.47,52.1,10.68,73,24,7.3,4.66,11.5,8.81,15,13,11.68,13.98,13.98,29.48,15,37,3.87,28.55-8.05,50.85-12,58-11.36,20.56-26.79,31.38-35,37-21.67,14.83-44.86,20.37-46,18-.85-1.77,11.05-5.45,19-19,4.73-8.06,6.28-16.58,8-26,1.63-8.95,1.93-15.91,2-18,.27-7.82.75-28.86-10-52-2.75-5.93-7.87-16.96-18-27-19.59-19.43-45.15-22.52-59-24-34.74-3.72-64.16,6.35-107,21-4.31,1.48-20.47,6.9-42.95,13.15-3.26.91-6.72,1.8-11.05,2.85-57.74,14.03-78.76,9.48-88.03,5.45-1.31-.57-2.19-1.05-2.97-1.45-45.91-23.58-59.66-90.52-64-113-9.68-50.2-5-94.73-1-95,4.2-.28,7.05,48.11,33,111,6.08,14.73,15.6,35.78,37,53,14.02,11.28,27.24,16.18,29.79,17.09,19.81,7.12,38.21,4.89,99.21-12.09,72.03-20.05,91.54-23.78,118-25,6.74-.31,24.83-.94,48,2Z"/>
      <path class="cls-13" d="m977.04,794.29c-1.54.73-19.07-31.65-37-44-6.89-4.75-16.59-8.42-21.12-9.63-4.09-1.09-7.88-1.37-7.88-1.37-2.43-.18-4.49-.11-6,0-2.07-7.14-5.66-16-12.35-24.53-14.11-17.98-32.46-22.39-31.88-23.9.87-2.29,45.33.78,79.36,32.53,32.15,29.99,38.46,70.14,36.87,70.9Z"/>
      <path class="cls-13" d="m797.15,677.49c27.36,3.47,52.1,10.68,73,24,7.3,4.66,11.5,8.81,15,13,11.68,13.98,13.98,29.48,15,37,3.87,28.55-8.05,50.85-12,58-11.36,20.56-26.79,31.38-35,37-21.67,14.83-44.86,20.37-46,18-.85-1.77,11.05-5.45,19-19,4.73-8.06,6.28-16.58,8-26,1.63-8.95,1.93-15.91,2-18,.27-7.82.75-28.86-10-52-2.75-5.93-7.87-16.96-18-27-19.59-19.43-45.15-22.52-59-24-34.74-3.72-64.16,6.35-107,21-4.31,1.48-20.47,6.9-42.95,13.15-3.26.91-6.72,1.8-11.05,2.85-57.74,14.03-78.76,9.48-88.03,5.45-1.31-.57-2.19-1.05-2.97-1.45-45.91-23.58-59.66-90.52-64-113-9.68-50.2-5-94.73-1-95,4.2-.28,7.05,48.11,33,111,6.08,14.73,15.6,35.78,37,53,14.02,11.28,27.24,16.18,29.79,17.09,19.81,7.12,38.21,4.89,99.21-12.09,72.03-20.05,91.54-23.78,118-25,6.74-.31,24.83-.94,48,2Z"/>
      <path class="cls-24" d="m870.04,189.29c18.66,20.7,55.64,67.6,48,76-3,3.3-11.08-5.08-22-3-18.38,3.5-25.08,32.58-46,91-20.48,57.19-27.43,66.68-38,70-15.37,4.83-23.76-7.98-56-14-25.94-4.84-46.54-1.41-61,1-51.73,8.62-61.35,33.48-101,44-40.17,10.66-75.64-2.84-105-14-54.58-20.76-93.65-58.95-152-116-.44-.43-3.9-3.73-8.58-8.11-22.71-21.29-34.07-31.94-40.42-35.89,0,0-21.04-13.06-52-17-8.24-1.05-16-1-16-1-4.8.02-17.53.33-49,9-9.03,2.49-7.02,2.2-27,8-22.19,6.44-19.56,5.32-28,8-21.04,6.68-36.49,13.39-41,16-1.94,1.12-4.04,1.92-6,3-.82.45-2.69,1.5-5.34,1.91,0,0-.33.06-.66.09-4.85.47-5.88-1.61-14-3-7.85-1.35-9.92.07-12-1-8.04-4.16-.9-37.88,7-58,23.02-58.64,88.16-92.67,142-120,84.87-43.08,157.79-58.13,193-64,57.49-9.59,103.57-9.57,126-9,35.37.91,248.12,6.35,365,136Z"/>
      <path class="cls-5" d="m392.04,51.29c-4.08.05-9.97-.08-17-1-9.14-1.2-15.84-3.16-22-5-21.58-6.43-27.06-8.29-33-10-5.98-1.72-23.15-6.38-45-8-22.7-1.68-41.54.57-45,1-14.59,1.82-24.48,4.55-25,3-.79-2.35,21.06-11.6,22-12,35.02-14.83,189.34-33.62,306,66,56.57,48.3,96.96,118.96,113,147,16.03,28.04,19.96,39.75,22,39,6.05-2.23-11.75-111.24-89-190-1.63-1.66-3.01-3.03-4-4-7.63-5.69-17.78-14.17-16-18,.76-1.63,3.72-2.48,20-1,18.72,1.71,30,4,30,4,22.51,4.58,39.54,8.65,41,9,21.19,5.09,32.07,7.72,46,12,15.91,4.89,26.05,8.84,29,10,10.34,4.07,17.58,6.92,27,12,25.07,13.53,34.21,25.95,37,30,1.34,1.94,2.23,3.42,2.48,3.83,2.09,3.48,12.01,20.78,9.52,49.17-2.36,26.94-14.24,45.11-24,67-8.57,19.22-18.45,47.9-22,87-20.11,4.2-45.15,7.72-74,8-27.46.26-51.47-2.48-71-6-25.31-23.14-65.74-54.1-122-73-51.2-17.19-61.16-6.14-117-27-77.62-28.99-119.64-73.58-130-85-15.16-16.71-25.88-32.41-33-44,13.1-6.24,62.03-29.21,98-38,11.2-2.74,41.29-9.02,46-10,11.9-2.47,17.85-3.71,21-4,.51-.05,2.9-.26,6-1,3.47-.83,5.83-1.39,8-3,1.06-.79,3.74-3.06,5-8Z"/>
      <g>
        <path class="cls-13" d="m339.78,260.46c-17.61-.05-31.97,2.93-41.4,5.51,32.25-1,55.15,5.71,68.67,11.01.2.08.39.16.59.24,1.12-4.51,2.89-8.81,5.02-13.02-9.82-2.16-20.45-3.7-32.87-3.73Z"/>
        <path class="cls-13" d="m375.14,265.53c-2.19,4.37-4.02,8.84-5.18,13.53,3.21,1.28,6.29,2.66,9.38,4.16.56-5.39,1.6-10.73,3.31-15.86-2.47-.64-4.96-1.26-7.52-1.83Z"/>
        <path class="cls-13" d="m489.38,315.46c-6.95-3.91-21.79-12.26-42-22-19.75-9.52-30.86-14.87-47-20-.07-.02-.14-.04-.21-.06-1.8,6.59-3.11,13.32-3.7,20.13,8.16,5.28,17.43,11.95,29.91,20.94,16.75,12.07,30.07,22.67,39,30,14.05,9.38,26.34,13.22,35,15,14.62,3,22.78,1.49,41,3,10.15.84,24.98,2.81,43,8-42-24.91-74.26-43.32-95-55Z"/>
      </g>
      <path class="cls-13" d="m846.04,220.29c-2.69,2.24-5.91,5.32-9.08,9.41-3.16,4.07-5.38,7.98-6.92,11.18,2.78.44,5.65.75,8.48,1.41.37-2.72.98-5.82,1.98-9.18,1.58-5.28,3.66-9.57,5.54-12.82Z"/>
      <path class="cls-13" d="m828.68,243.96c-1.99,2.92-3.98,5.9-5.97,8.94,4.64.19,9.31.55,13.61,1.57.47-2.88,1.04-5.93,1.71-9.13-3.12-.64-6.29-.95-9.36-1.38Z"/>
      <path class="cls-10" d="m629.76,774.24c-.18,2.69-.88,7.3-3.89,11.44-5.37,7.38-14.28,8.02-18.46,8.32-8.77.63-11.3-2.35-23.32-5.2-7.13-1.69-18.38-4.36-31.1-2.08-6.99,1.25-13.18,4.32-25.27,10.4-15.38,7.74-17.02,10.58-24.3,13.52-8.26,3.34-21.03,5.74-39.84,0-4.67-1.25-12.33-3.95-19.44-10.4-10.87-9.87-14.37-22.98-15.55-27.04-2.11-7.31-34.27-68.73-98.6-191.59-8.98-17.16-23.06-43.54-41.35-75.7,0,0-66.52-114.29-126.34-166.41-26.81-23.35-55.39-39.52-55.39-39.52-13.5-7.64-25.33-13.02-34.01-16.64,10.37-4.71,25.36-11.33,43.73-18.72,15.31-6.16,23.82-9.59,35.96-13.52,14.23-4.61,30.69-9.86,51.51-12.48,17.66-2.23,33.93-1.99,42.76-1.04,45.76,4.95,79.32,49.56,86.49,58.24,29.23,35.39,116.18,74.22,369.29,89.44-21.29,12.41-78.24,49.64-107.87,124.81-52.18,132.36,29.88,256.7,34.99,264.17Z"/>
      <path class="cls-13" d="m799.04,297.29c-8.07,17.17-14.63,33.63-20,49,7.6-4.31,15.66-9.27,24-15,9.32-6.4,17.64-12.82,25-19,1.52-4.6,3.54-11.47,5-20,1.91-11.15,1.93-19.53,2-23,.04-1.96.12-4.1.28-6.42-5.23-1.81-10.85-2.87-16.59-3.32-6.72,11.67-13.35,24.24-19.69,37.74Z"/>
      <path class="cls-11" d="m394.9,50.65c-3.96.02-9.69-.14-16.52-1.08-8.89-1.23-15.41-3.18-21.41-5-21.01-6.39-26.34-8.23-32.13-9.94-5.82-1.71-22.54-6.35-43.77-8.07-22.06-1.79-40.35.28-43.71.67-14.17,1.67-23.75,4.26-24.27,2.75-.78-2.29,20.38-11.13,21.29-11.52,33.93-14.18,183.73-31.42,297.73,66.16,55.28,47.31,94.99,116.24,110.76,143.6,15.76,27.36,19.65,38.76,21.63,38.04,5.86-2.12-12.15-108.18-87.72-185.23-1.59-1.62-2.95-2.97-3.91-3.91-7.45-5.58-17.37-13.89-15.66-17.6.73-1.58,3.59-2.39,19.42-.84,18.2,1.78,29.17,4.09,29.17,4.09,21.9,4.6,38.48,8.67,39.89,9.02,20.62,5.08,31.21,7.71,44.77,11.97,15.49,4.86,25.37,8.76,28.24,9.91,10.07,4.02,17.13,6.84,26.31,11.84,24.45,13.31,33.4,25.45,36.15,29.4,1.32,1.9,2.19,3.34,2.43,3.74,2.05,3.4,11.8,20.27,9.58,47.85-2.11,26.16-13.53,43.74-22.87,64.95-8.2,18.62-17.6,46.42-20.8,84.4-19.51,3.94-43.81,7.21-71.84,7.29-26.67.07-50.02-2.75-69.02-6.3-24.74-22.66-64.22-53.01-119.01-71.75-49.86-17.05-59.46-6.37-113.85-27.01-75.6-28.69-116.72-72.3-126.86-83.46-14.84-16.34-25.36-31.67-32.35-42.98,12.68-5.98,60.07-27.97,94.96-36.28,10.87-2.59,40.05-8.49,44.62-9.41,11.54-2.32,17.32-3.48,20.38-3.75.5-.04,2.82-.24,5.82-.93,3.37-.78,5.65-1.31,7.75-2.86,1.03-.76,3.61-2.95,4.8-7.74Z"/>
    </g>
  </g>
</svg>